#!OML:ASF I:\Actors\actors\Patient Classification 2\Patient 1\Session 1\actor1.ASF
:FULLY-SPECIFIED
:DEGREES
495
root 1.02087 18.9653 7.05784 12.1579 14.9704 -13.6658
lowerback 17.2913 -0.199094 -2.57233
upperback 5.88445 -0.536484 2.21679
thorax -3.34215 -0.280578 3.91268
lowerneck -9.06632 -7.87479 -9.2554
upperneck 36.3157 -14.4052 13.8812
head 16.3941 -5.76656 5.24878
rclavicle 1.74931e-014 -2.38542e-014
rhumerus -64.2864 63.0468 -82.5899
rradius 108.397
rwrist -7.54054
rhand 9.52968 -39.5561
rfingers 7.12502
rthumb 34.6801 -66.1863
lclavicle 1.74931e-014 -2.38542e-014
lhumerus 23.8382 -28.2784 75.8968
lradius 68.7196
lwrist -1.54843
lhand -26.5998 -59.984
lfingers 7.12502
lthumb -0.0335663 -30.0043
rfemur -16.9246 16.1948 -7.64758
rtibia 91.2641
rfoot -7.66815 11.2463
rtoes -15.2894
lfemur -31.4549 -11.7148 -5.54593
ltibia 31.1797
lfoot -16.7381 5.23872
ltoes -50.7239
496
root 1.01899 18.99 7.07371 12.4657 15.014 -14.0507
lowerback 17.0243 -0.515956 -2.38017
upperback 6.08421 -0.938459 1.67521
thorax -2.96983 -0.482717 3.29659
lowerneck -9.49393 -7.48326 -9.02667
upperneck 36.2804 -13.868 13.9397
head 16.3617 -5.49438 5.31927
rclavicle 3.33958e-014 3.49861e-014
rhumerus -65.4315 62.8791 -81.3789
rradius 108.657
rwrist -6.45721
rhand 9.75552 -39.2766
rfingers 7.12502
rthumb 34.8944 -65.8572
lclavicle 3.33958e-014 3.49861e-014
lhumerus 21.5077 -26.8865 79.5251
lradius 68.9698
lwrist 1.0965
lhand -27.0676 -59.063
lfingers 7.12502
lthumb -0.485353 -29.0839
rfemur -17.9436 17.0935 -8.48604
rtibia 94.9983
rfoot -7.95963 11.1394
rtoes -14.9537
lfemur -31.5703 -12.0622 -4.89287
ltibia 30.6495
lfoot -16.6535 5.74909
ltoes -50.6347
497
root 1.0129 19.0117 7.08572 12.6782 15.144 -14.4801
lowerback 16.8948 -0.858693 -2.02883
upperback 6.24365 -1.35011 1.10467
thorax -2.72771 -0.682643 2.565
lowerneck -9.7897 -7.11188 -8.55934
upperneck 36.2873 -13.3534 13.788
head 16.2771 -5.2264 5.25018
rclavicle -1.27222e-014 -3.33958e-014
rhumerus -66.8907 62.4941 -80.6529
rradius 108.797
rwrist -5.65814
rhand 8.44617 -39.4229
rfingers 7.12502
rthumb 33.6511 -66.2834
lclavicle -1.27222e-014 -3.33958e-014
lhumerus 19.2047 -25.4428 82.7366
lradius 69.2781
lwrist 3.98629
lhand -27.5856 -58.6063
lfingers 7.12502
lthumb -0.985699 -28.6288
rfemur -18.9377 17.7813 -9.24521
rtibia 98.7761
rfoot -8.42853 10.7141
rtoes -14.7957
lfemur -31.6987 -12.3836 -4.19005
ltibia 30.2439
lfoot -16.5612 6.12977
ltoes -50.5298
498
root 1.0037 19.0318 7.09296 12.8146 15.2725 -14.9573
lowerback 16.9427 -1.43655 -1.88219
upperback 6.30975 -2.0896 0.859152
thorax -2.65469 -1.04518 2.35982
lowerneck -10.1915 -6.47752 -8.76509
upperneck 36.5886 -12.2007 13.3391
head 16.2851 -4.80743 5.30442
rclavicle -1.27222e-014 5.56597e-014
rhumerus -68.4461 63.4645 -79.9162
rradius 109.074
rwrist -6.36603
rhand 4.24764 -41.0622
rfingers 7.12502
rthumb 29.6521 -68.7119
lclavicle -1.27222e-014 5.56597e-014
lhumerus 16.6636 -22.8679 86.0268
lradius 69.6706
lwrist 7.16646
lhand -28.1654 -58.468
lfingers 7.12502
lthumb -1.54565 -28.4938
rfemur -20.0287 18.3945 -10.0408
rtibia 102.588
rfoot -8.84191 10.2184
rtoes -13.0525
lfemur -31.8325 -12.6238 -3.45589
ltibia 29.9661
lfoot -16.5049 6.45258
ltoes -50.5231
499
root 0.990294 19.0457 7.09682 12.8586 15.4203 -15.4169
lowerback 17.1017 -1.99714 -1.62898
upperback 6.43222 -2.79082 0.567274
thorax -2.59875 -1.38661 2.04192
lowerneck -8.97741 -6.10136 -9.80044
upperneck 35.7177 -11.526 13.8705
head 15.5416 -4.6767 5.81656
rclavicle 1.59028e-015 2.70347e-014
rhumerus -67.1806 64.1402 -76.289
rradius 108.937
rwrist -4.91896
rhand 6.28016 -39.039
rfingers 7.12502
rthumb 31.5902 -66.3263
lclavicle 1.59028e-015 2.70347e-014
lhumerus 14.4948 -20.4236 88.7647
lradius 70.1675
lwrist 10.8083
lhand -28.8924 -58.1085
lfingers 7.12502
lthumb -2.24774 -28.1406
rfemur -21.0322 19.0718 -10.8393
rtibia 106.349
rfoot -9.15523 9.80277
rtoes -10.6777
lfemur -31.9409 -12.8946 -2.74189
ltibia 29.7856
lfoot -16.5023 6.75629
ltoes -50.5099
